<?xml version="1.0" encoding="utf-8"?>
<!-- Generator: Adobe Illustrator 24.0.1, SVG Export Plug-In . SVG Version: 6.00 Build 0)  -->
<svg version="1.1" xmlns="http://www.w3.org/2000/svg" xmlns:xlink="http://www.w3.org/1999/xlink" x="0px" y="0px"
	 viewBox="0 0 264 280" style="enable-background:new 0 0 264 280;" xml:space="preserve">
<style type="text/css">
	.st0{fill:#FFFFFF;}
	.st1{clip-path:url(#SVGID_3_);fill:#012935;}
	.st2{fill:#EDBB96;}
	.st3{fill:#0E0F10;}
	.st4{fill:#FFD1AE;}
	.st5{fill:#3D3E40;}
	.st6{fill:#E5AA8D;}
	.st7{fill:#E09474;}
	.st8{fill:#012935;}
</style>
<g id="Layer_1">
	<g>
		<g>
			<g>
				<circle id="SVGID_1_" class="st0" cx="132" cy="148.3" r="121.3"/>
			</g>
			<g>
				<defs>
					<circle id="SVGID_2_" cx="132" cy="148.3" r="121.3"/>
				</defs>
				<clipPath id="SVGID_3_">
					<use xlink:href="#SVGID_2_"  style="overflow:visible;"/>
				</clipPath>
				<polygon class="st1" points="224.1,194.5 224.1,179.2 216.4,179.2 216.4,171.5 201,171.5 201,163.8 178,163.8 178,171.5 
					170.4,171.5 170.4,179.2 162.7,179.2 162.7,186.8 155,186.8 155,194.5 109,194.5 109,186.8 101.3,186.8 101.3,179.2 93.6,179.2 
					93.6,171.5 86,171.5 86,163.8 63,163.8 63,171.5 47.6,171.5 47.6,179.2 39.9,179.2 39.9,194.5 32.3,194.5 32.3,271.2 
					231.7,271.2 231.7,194.5 				"/>
			</g>
		</g>
		<polygon class="st2" points="101.3,48.8 101.3,56.4 116.7,56.4 116.7,64.1 101.3,64.1 101.3,71.8 93.6,71.8 93.6,64.1 86,64.1 
			86,102.4 78.3,102.4 78.3,94.8 70.6,94.8 70.6,117.8 78.3,117.8 78.3,125.5 86,125.5 86,148.5 93.6,148.5 93.6,163.8 86,163.8 
			86,171.5 93.6,171.5 93.6,179.2 101.3,179.2 101.3,186.8 109,186.8 109,194.5 132,194.5 132,186.8 116.7,186.8 116.7,179.2 
			109,179.2 109,171.5 101.3,171.5 101.3,133.1 109,133.1 109,125.5 116.7,125.5 116.7,117.8 124.3,117.8 124.3,110.1 132,110.1 
			132,48.8 		"/>
		<rect x="93.6" y="79.4" class="st3" width="30.7" height="7.7"/>
		<rect x="93.6" y="64.1" class="st4" width="7.7" height="7.7"/>
		<rect x="93.6" y="56.4" class="st2" width="7.7" height="7.7"/>
		<rect x="101.3" y="56.4" class="st4" width="15.3" height="7.7"/>
		<rect x="93.6" y="18.1" class="st5" width="7.7" height="7.7"/>
		<rect x="162.7" y="18.1" class="st5" width="7.7" height="7.7"/>
		<rect x="101.3" y="10.4" class="st5" width="7.7" height="7.7"/>
		<rect x="155" y="10.4" class="st5" width="7.7" height="7.7"/>
		<rect x="78.3" y="33.4" class="st5" width="7.7" height="7.7"/>
		<rect x="178" y="33.4" class="st5" width="7.7" height="7.7"/>
		<rect x="86" y="25.7" class="st5" width="7.7" height="7.7"/>
		<rect x="170.4" y="25.7" class="st5" width="7.7" height="7.7"/>
		<rect x="124.3" y="110.1" class="st4" width="7.7" height="7.7"/>
		<rect x="101.3" y="102.4" class="st6" width="15.3" height="7.7"/>
		<polygon class="st7" points="139.7,102.4 139.7,125.5 124.3,125.5 124.3,117.8 132,117.8 132,102.4 		"/>
		<rect x="147.3" y="102.4" class="st7" width="15.3" height="7.7"/>
		<rect x="109" y="125.5" class="st5" width="7.7" height="7.7"/>
		<rect x="116.7" y="125.5" class="st3" width="30.7" height="7.7"/>
		<rect x="147.3" y="125.5" class="st5" width="7.7" height="7.7"/>
		<rect x="116.7" y="117.8" class="st4" width="7.7" height="7.7"/>
		<rect x="93.6" y="79.4" class="st5" width="7.7" height="7.7"/>
		<rect x="101.3" y="79.4" class="st3" width="23" height="7.7"/>
		<rect x="78.3" y="94.8" class="st5" width="7.7" height="7.7"/>
		<rect x="101.3" y="94.8" class="st0" width="7.7" height="7.7"/>
		<rect x="109" y="94.8" class="st3" width="7.7" height="7.7"/>
		<rect x="116.7" y="94.8" class="st0" width="7.7" height="7.7"/>
		<rect x="139.7" y="94.8" class="st0" width="7.7" height="7.7"/>
		<rect x="147.3" y="94.8" class="st3" width="7.7" height="7.7"/>
		<rect x="155" y="94.8" class="st0" width="7.7" height="7.7"/>
		<rect x="178" y="94.8" class="st5" width="7.7" height="7.7"/>
		<rect x="109" y="171.5" class="st6" width="7.7" height="7.7"/>
		<rect x="116.7" y="171.5" class="st7" width="30.7" height="7.7"/>
		<rect x="147.3" y="171.5" class="st7" width="7.7" height="7.7"/>
		<polygon class="st3" points="86,232.9 63,232.9 63,225.2 55.3,225.2 55.3,209.9 78.3,209.9 78.3,217.5 86,217.5 		"/>
		<rect x="101.3" y="163.8" class="st6" width="7.7" height="7.7"/>
		<rect x="109" y="163.8" class="st5" width="7.7" height="7.7"/>
		<rect x="116.7" y="163.8" class="st3" width="30.7" height="7.7"/>
		<rect x="147.3" y="163.8" class="st5" width="7.7" height="7.7"/>
		<rect x="155" y="163.8" class="st7" width="7.7" height="7.7"/>
		<polygon class="st6" points="185.7,94.8 185.7,102.4 178,102.4 178,64.1 170.4,64.1 170.4,56.4 162.7,56.4 162.7,48.8 132,48.8 
			132,102.4 139.7,102.4 139.7,94.8 162.7,94.8 162.7,110.1 147.3,110.1 147.3,102.4 139.7,102.4 139.7,125.5 155,125.5 155,133.1 
			162.7,133.1 162.7,171.5 155,171.5 155,179.2 116.7,179.2 116.7,186.8 132,186.8 132,194.5 155,194.5 155,186.8 162.7,186.8 
			162.7,179.2 170.4,179.2 170.4,171.5 178,171.5 178,163.8 170.4,163.8 170.4,148.5 178,148.5 178,125.5 185.7,125.5 185.7,117.8 
			193.4,117.8 193.4,94.8 		"/>
		<rect x="139.7" y="79.4" class="st3" width="30.7" height="7.7"/>
		<rect x="147.3" y="79.4" class="st3" width="23" height="7.7"/>
		<rect x="139.7" y="79.4" class="st5" width="7.7" height="7.7"/>
		<polygon class="st6" points="132,148.5 132,163.8 116.7,163.8 116.7,156.1 109,156.1 109,140.8 116.7,140.8 116.7,148.5 		"/>
		<rect x="116.7" y="140.8" class="st7" width="30.7" height="7.7"/>
		<polygon class="st6" points="155,140.8 155,156.1 147.3,156.1 147.3,163.8 132,163.8 132,148.5 147.3,148.5 147.3,140.8 		"/>
		<rect x="101.3" y="133.1" class="st3" width="7.7" height="23"/>
		<rect x="109" y="133.1" class="st7" width="7.7" height="7.7"/>
		<rect x="116.7" y="133.1" class="st6" width="30.7" height="7.7"/>
		<rect x="147.3" y="133.1" class="st7" width="7.7" height="7.7"/>
		<rect x="155" y="133.1" class="st3" width="7.7" height="23"/>
		<rect x="101.3" y="156.1" class="st5" width="7.7" height="7.7"/>
		<rect x="109" y="156.1" class="st3" width="7.7" height="7.7"/>
		<rect x="147.3" y="156.1" class="st3" width="7.7" height="7.7"/>
		<rect x="155" y="156.1" class="st5" width="7.7" height="7.7"/>
		<rect x="63" y="217.5" class="st8" width="15.3" height="7.7"/>
		<polygon class="st0" points="86,217.5 86,232.9 63,232.9 63,225.2 78.3,225.2 78.3,217.5 		"/>
		<polygon class="st0" points="78.3,209.9 78.3,217.5 63,217.5 63,225.2 55.3,225.2 55.3,209.9 		"/>
		<polygon class="st3" points="178,94.8 178,64.1 170.4,64.1 170.4,56.4 162.7,56.4 162.7,48.8 101.3,48.8 101.3,56.4 93.6,56.4 
			93.6,64.1 86,64.1 86,94.8 78.3,94.8 78.3,41.1 86,41.1 86,33.4 93.6,33.4 93.6,25.7 101.3,25.7 101.3,18.1 109,18.1 109,10.4 
			155,10.4 155,18.1 162.7,18.1 162.7,25.7 170.4,25.7 170.4,33.4 178,33.4 178,41.1 185.7,41.1 185.7,94.8 		"/>
	</g>
	<rect x="70.6" y="87.1" class="st6" width="7.7" height="7.7"/>
	<rect x="185.7" y="87.1" class="st7" width="7.7" height="7.7"/>
</g>
<g id="Layer_2">
</g>
</svg>
